<svg width="24" height="24" viewBox="0 0 24 24" fill="none" xmlns="http://www.w3.org/2000/svg">
    <g id="Group">
    <path id="Vector" d="M12 24C18.6274 24 24 18.6274 24 12C24 5.37258 18.6274 0 12 0C5.37258 0 0 5.37258 0 12C0 18.6274 5.37258 24 12 24Z" fill="#627EEA"/>
    <g id="Group_2">
    <path id="Vector_2" d="M12.374 3V9.6525L17.9968 12.165L12.374 3Z" fill="white" fill-opacity="0.602"/>
    <path id="Vector_3" d="M12.3735 3L6.75 12.165L12.3735 9.6525V3Z" fill="white"/>
    <path id="Vector_4" d="M12.374 16.4762V20.9964L18.0005 13.2122L12.374 16.4762Z" fill="white" fill-opacity="0.602"/>
    <path id="Vector_5" d="M12.3735 20.9964V16.4754L6.75 13.2122L12.3735 20.9964Z" fill="white"/>
    <path id="Vector_6" d="M12.374 15.43L17.9968 12.1653L12.374 9.6543V15.43Z" fill="white" fill-opacity="0.2"/>
    <path id="Vector_7" d="M6.75 12.1653L12.3735 15.43V9.6543L6.75 12.1653Z" fill="white" fill-opacity="0.602"/>
    </g>
    </g>
    </svg>
    